<?xml version="1.0" encoding="UTF-8" standalone="no"?>
<!-- Created with Inkscape (http://www.inkscape.org/) -->

<svg
   width="50"
   height="33"
   viewBox="0 0 55.315582 38.83099"
   version="1.1"
   id="svg1"
   xml:space="preserve"
   xmlns="http://www.w3.org/2000/svg"
   xmlns:svg="http://www.w3.org/2000/svg"><defs
     id="defs1" /><g
     id="layer1"
     transform="translate(-78.618578,-118.38327)"
     >
     <path
       style="fill:#000000"
       d="m 82.094291,157.02832 c -1.194133,-0.60955 -1.29961,-1.72028 -0.841369,-8.86008 1.057942,-16.48366 1.035195,-16.94535 -0.871741,-17.6929 -1.622026,-0.63586 -1.947248,-1.59439 -1.678,-4.94558 0.530207,-6.59918 0.542076,-6.68084 0.96508,-6.63977 0.361181,0.0351 0.365602,0.0745 0.516409,4.60386 0.134316,4.03409 0.154336,4.18506 0.554954,4.18506 0.409353,0 0.45488,-0.4132 0.680992,-6.18067 0.105629,-2.69427 0.09459,-2.62466 0.416291,-2.62466 0.398899,0 0.467705,0.5815 0.67622,5.715 0.120419,2.96463 0.143493,3.09033 0.567293,3.09033 0.354974,0 0.372889,-0.16708 0.662456,-6.17844 0.127737,-2.65178 0.149563,-2.75686 0.550826,-2.65193 0.235284,0.0615 0.24729,0.13389 0.338666,2.04128 0.328776,6.86289 0.321267,6.79044 0.703402,6.78779 0.46516,-0.003 0.461957,0.0138 0.564058,-3.00437 0.220564,-6.52013 0.156992,-5.96143 0.663272,-5.82904 0.235926,0.0617 0.232293,0.0384 0.524997,3.37371 0.138943,1.58327 0.296088,3.36573 0.349209,3.96103 0.244177,2.73635 -0.146825,3.6591 -1.820064,4.29528 -1.625792,0.61814 -1.703002,0.7756 -1.701533,3.47002 0.0013,2.473 0.28192,8.0972 0.673685,13.50434 0.354725,4.89589 0.371367,8.00721 0.04653,8.69828 -0.431336,0.91763 -1.64571,1.33879 -2.541629,0.88146 z m 46.270329,-0.0454 c -1.23385,-0.56946 -1.35043,-1.92617 -0.8083,-9.4073 1.0393,-14.34208 0.99711,-16.08922 -0.41133,-17.03525 -4.58684,-3.08088 -2.29741,-13.05413 2.7758,-12.09201 4.54624,0.86217 5.52639,9.32963 1.40211,12.11267 -1.02884,0.69425 -1.13801,0.95713 -1.13778,2.73972 1.5e-4,1.15578 0.26583,7.63326 0.37714,9.19487 0.0249,0.34925 0.10251,1.6637 0.17249,2.921 0.07,1.2573 0.1736,2.8194 0.23028,3.47133 0.19152,2.2027 0.14444,6.79219 -0.0738,7.19666 -0.50459,0.93512 -1.60169,1.32518 -2.52659,0.89831 z m -23.41033,-0.43361 c -4.8166,-0.37285 -9.582714,-2.57285 -12.488884,-5.76479 -6.257134,-6.87241 -7.150874,-16.07361 -2.26728,-23.34205 8.76778,-13.04943 28.204194,-10.90161 33.936404,3.75015 4.88176,12.47795 -5.65205,26.40388 -19.18024,25.35669 z m 3.72533,-5.71252 c 5.16894,-0.93392 8.98347,-4.64094 10.42621,-9.14703 0.98682,-3.08215 0.86401,-6.53815 -0.69403,-9.73628 -5.39137,-11.0667 -21.779624,-9.74357 -25.182394,2.03314 -2.75035,9.51874 5.603282,18.6293 15.450214,16.85017 z m -5.41866,-7.86762 c 0,-0.0655 0.2431,-0.68464 0.54022,-1.37584 0.29713,-0.69119 0.84786,-2.01871 1.22385,-2.95005 0.37598,-0.93133 1.11718,-2.76013 1.64711,-4.064 l 0.9635,-2.37066 0.73366,-0.0245 c 0.40351,-0.0135 0.73366,0.001 0.73366,0.0329 0,0.0316 -0.30114,0.76646 -0.66919,1.63313 -0.36804,0.86667 -1.22633,2.98547 -1.90728,4.70844 -0.68096,1.72296 -1.37536,3.44699 -1.5431,3.83116 l -0.30499,0.6985 h -0.70872 c -0.55268,0 -0.70872,-0.0262 -0.70872,-0.11911 z m -1.22767,-2.04092 c -0.0466,-0.0165 -1.20861,-0.36193 -2.582334,-0.76763 -3.7825,-1.11709 -3.73239,-1.08646 -3.79168,-2.31773 -0.0649,-1.34708 -0.061,-1.35099 1.87015,-1.89981 4.534534,-1.28867 4.715864,-1.33445 4.766204,-1.20325 0.0229,0.0596 0.0304,0.40985 0.0166,0.77827 l -0.025,0.66985 -2.370664,0.59722 c -4.03751,1.01713 -4.10992,0.86045 1.051124,2.27449 1.55856,0.42703 1.52813,0.40471 1.52991,1.12186 0.002,0.74289 -0.0843,0.88139 -0.46437,0.74673 z m 7.96772,-0.0906 c -0.0283,-0.0737 -0.0514,-0.39617 -0.0514,-0.71669 0,-0.71831 -0.1686,-0.61995 2.17292,-1.26761 2.39604,-0.66273 3.41508,-1.00173 3.41508,-1.13609 0,-0.1387 -0.84057,-0.38081 -4.826,-1.39 l -0.55033,-0.13935 -0.0248,-0.7118 c -0.0294,-0.84274 0.007,-0.89797 0.48566,-0.72923 0.20044,0.0707 1.32314,0.39438 2.49489,0.71926 3.93558,1.09116 3.82499,1.00198 3.6179,2.91745 -0.0691,0.63924 -0.15116,0.68357 -2.59431,1.40183 -0.9779,0.28748 -2.25856,0.67198 -2.84591,0.85443 -1.21593,0.3777 -1.22418,0.37896 -1.2937,0.1978 z"
       id="path1" /></g></svg>
